<svg xmlns="http://www.w3.org/2000/svg" xmlns:xlink="http://www.w3.org/1999/xlink" width="70" height="70" zoomAndPan="magnify" viewBox="0 0 36 36.000001" preserveAspectRatio="xMidYMid meet" version="1.0"><defs><clipPath id="c99722bf35"><path d="M 11 25 L 16 25 L 16 30.578125 L 11 30.578125 Z M 11 25 " clip-rule="nonzero"/></clipPath><clipPath id="32f319dc11"><path d="M 25 25 L 31 25 L 31 30.578125 L 25 30.578125 Z M 25 25 " clip-rule="nonzero"/></clipPath></defs><path fill="#ffc021" d="M 9.738281 15.175781 C 8.859375 12.605469 9.378906 9.609375 11.0625 7.480469 C 12.082031 6.195312 13.609375 5.195312 15.246094 5.25 C 16.417969 5.289062 17.507812 5.851562 18.476562 6.511719 C 19.445312 7.171875 20.339844 7.945312 21.375 8.496094 C 23.441406 9.589844 25.867188 9.707031 28.203125 9.824219 C 29.328125 9.878906 30.507812 9.953125 31.460938 10.554688 C 32.980469 11.515625 33.46875 13.644531 32.894531 15.347656 C 32.316406 17.050781 30.886719 18.347656 29.308594 19.210938 C 26.175781 20.921875 22.441406 21.140625 18.875 20.945312 C 17.355469 20.863281 15.824219 20.707031 14.378906 20.230469 C 12.933594 19.753906 11.5625 18.933594 10.652344 17.714844 C 9.738281 16.496094 9.332031 14.851562 9.738281 15.175781 Z M 9.738281 15.175781 " fill-opacity="1" fill-rule="nonzero"/><path fill="#5271ff" d="M 15.796875 15.351562 C 15.800781 15.371094 15.800781 15.398438 15.804688 15.414062 C 15.800781 15.394531 15.800781 15.371094 15.796875 15.351562 Z M 15.796875 15.351562 " fill-opacity="1" fill-rule="nonzero"/><path fill="#5271ff" d="M 33.484375 14.109375 C 33.378906 14 33.230469 13.964844 33.089844 13.929688 C 32.902344 13.882812 32.710938 13.847656 32.519531 13.8125 C 32.054688 13.730469 31.589844 13.640625 31.125 13.558594 C 29.535156 13.273438 27.945312 12.996094 26.347656 12.753906 C 23.882812 12.378906 21.410156 12.050781 18.949219 11.632812 C 17.660156 11.40625 16.378906 11.160156 15.097656 10.90625 C 14.128906 10.714844 13.164062 10.507812 12.191406 10.347656 C 11.875 10.292969 11.5625 10.238281 11.246094 10.191406 C 11.042969 10.164062 10.835938 10.109375 10.628906 10.140625 C 10.519531 10.160156 10.414062 10.238281 10.386719 10.347656 C 10.375 10.386719 10.371094 10.425781 10.378906 10.46875 C 10.386719 10.507812 10.398438 10.550781 10.402344 10.589844 C 10.402344 10.605469 10.40625 10.621094 10.410156 10.636719 C 10.675781 11.476562 13.167969 12.648438 15.394531 13.183594 C 16.367188 13.417969 17.351562 13.582031 18.339844 13.730469 C 20.976562 14.113281 23.628906 14.386719 26.277344 14.671875 C 26.242188 14.710938 26.214844 14.757812 26.195312 14.816406 C 26.074219 15.367188 26.078125 15.964844 25.996094 16.730469 C 25.964844 17.019531 25.9375 17.304688 25.90625 17.589844 C 25.652344 17.582031 25.402344 17.574219 25.148438 17.570312 C 24.046875 17.539062 22.945312 17.527344 21.84375 17.523438 C 21.789062 16.679688 21.742188 15.804688 21.628906 15.207031 C 21.632812 15.234375 21.636719 15.261719 21.640625 15.289062 C 21.59375 14.980469 21.5625 14.882812 21.527344 14.695312 C 21.507812 14.597656 21.488281 14.5 21.46875 14.402344 C 21.46875 14.398438 21.46875 14.398438 21.464844 14.394531 C 21.460938 14.367188 21.457031 14.335938 21.453125 14.308594 C 21.453125 14.300781 21.453125 14.289062 21.449219 14.28125 C 21.449219 14.28125 21.449219 14.285156 21.449219 14.285156 C 21.449219 14.285156 21.449219 14.28125 21.449219 14.28125 C 21.441406 14.246094 21.425781 14.214844 21.398438 14.191406 C 21.351562 14.144531 21.28125 14.128906 21.214844 14.144531 C 21.070312 14.1875 21.070312 14.324219 21.074219 14.453125 C 21.078125 14.433594 21.078125 14.414062 21.082031 14.398438 C 21.066406 14.484375 21.066406 14.574219 21.058594 14.660156 C 21.054688 14.730469 21.050781 14.800781 21.046875 14.871094 C 21.050781 14.847656 21.054688 14.824219 21.054688 14.800781 C 20.960938 15.621094 21.039062 16.449219 21.085938 17.269531 C 21.09375 17.351562 21.097656 17.4375 21.101562 17.523438 C 19.710938 17.519531 18.316406 17.523438 16.925781 17.515625 C 16.824219 16.960938 16.722656 16.40625 16.609375 15.851562 C 16.519531 15.386719 16.386719 14.929688 16.238281 14.476562 C 16.203125 14.359375 16.167969 14.246094 16.132812 14.128906 C 16.128906 14.117188 16.121094 14.09375 16.113281 14.074219 C 16.117188 14.078125 16.117188 14.085938 16.121094 14.089844 C 16.117188 14.0625 16.101562 14.035156 16.082031 14.015625 C 16.054688 13.96875 16 13.941406 15.949219 13.9375 C 15.847656 13.917969 15.746094 13.988281 15.71875 14.085938 C 15.710938 14.105469 15.710938 14.140625 15.714844 14.164062 C 15.71875 14.277344 15.726562 14.390625 15.734375 14.5 C 15.761719 14.9375 15.753906 15.023438 15.792969 15.332031 C 15.792969 15.332031 15.792969 15.328125 15.792969 15.328125 C 15.792969 15.332031 15.796875 15.339844 15.796875 15.34375 C 15.796875 15.347656 15.796875 15.351562 15.796875 15.351562 C 15.796875 15.351562 15.796875 15.347656 15.796875 15.347656 C 15.886719 16.007812 16.023438 16.65625 16.144531 17.3125 C 16.15625 17.378906 16.167969 17.445312 16.183594 17.511719 C 15.984375 17.507812 15.785156 17.507812 15.589844 17.503906 C 15.035156 17.5 14.480469 17.488281 13.929688 17.480469 C 13.746094 17.476562 13.5625 17.476562 13.378906 17.476562 C 13.296875 17.480469 13.210938 17.460938 13.136719 17.5 C 12.859375 17.609375 12.9375 18.039062 13.246094 18.039062 C 14.265625 18.089844 15.285156 18.125 16.304688 18.152344 C 16.417969 18.753906 16.535156 19.351562 16.660156 19.949219 C 16.722656 20.257812 16.777344 20.566406 16.828125 20.875 C 16.828125 20.890625 16.832031 20.914062 16.832031 20.933594 C 16.835938 20.96875 16.839844 21 16.847656 21.035156 L 16.847656 21.039062 C 16.8125 21.28125 17.121094 21.480469 17.332031 21.277344 C 17.375 21.226562 17.402344 21.175781 17.417969 21.113281 C 17.421875 21.097656 17.421875 21.085938 17.425781 21.070312 C 17.425781 21.078125 17.421875 21.085938 17.421875 21.09375 C 17.433594 21.066406 17.433594 21.035156 17.433594 21 C 17.4375 20.984375 17.4375 20.964844 17.441406 20.949219 C 17.4375 20.976562 17.433594 21.003906 17.429688 21.027344 C 17.457031 20.863281 17.425781 20.695312 17.414062 20.527344 C 17.363281 20.019531 17.28125 19.515625 17.191406 19.015625 C 17.140625 18.734375 17.09375 18.453125 17.042969 18.171875 C 18.410156 18.203125 19.78125 18.222656 21.148438 18.234375 C 21.199219 18.933594 21.246094 19.628906 21.277344 20.324219 C 21.292969 20.796875 21.980469 20.800781 21.996094 20.324219 C 22.011719 19.945312 21.96875 19.566406 21.949219 19.1875 C 21.929688 18.871094 21.90625 18.558594 21.886719 18.242188 C 22.640625 18.253906 23.394531 18.261719 24.152344 18.269531 C 24.71875 18.277344 25.285156 18.269531 25.847656 18.25 C 25.824219 18.582031 25.8125 18.914062 25.816406 19.246094 C 25.816406 19.429688 25.820312 19.613281 25.820312 19.796875 C 25.660156 19.832031 25.5 19.867188 25.339844 19.902344 C 23.683594 20.265625 22.035156 20.671875 20.371094 21.007812 C 18.753906 21.367188 17.117188 21.621094 15.480469 21.902344 C 15.34375 21.929688 15.207031 21.949219 15.066406 21.96875 C 14.992188 21.984375 14.914062 21.984375 14.847656 22.023438 C 14.761719 22.082031 14.699219 22.183594 14.722656 22.285156 C 14.730469 22.386719 14.8125 22.480469 14.910156 22.503906 C 14.988281 22.523438 15.066406 22.503906 15.144531 22.496094 C 15.375 22.472656 15.601562 22.441406 15.832031 22.414062 C 15.984375 22.398438 16.128906 22.378906 16.273438 22.363281 C 16.492188 22.335938 16.710938 22.3125 16.929688 22.289062 C 20.601562 21.914062 24.292969 21.695312 27.9375 21.066406 C 28.5 20.976562 29.066406 20.875 29.628906 20.777344 L 29.535156 20.789062 C 29.65625 20.769531 29.78125 20.75 29.90625 20.722656 C 30.007812 20.726562 30.109375 20.6875 30.207031 20.660156 C 30.355469 20.609375 30.507812 20.554688 30.632812 20.460938 C 30.957031 20.234375 31.109375 19.859375 31.269531 19.511719 C 31.566406 18.875 31.867188 18.242188 32.191406 17.621094 C 32.402344 17.210938 32.613281 16.804688 32.816406 16.394531 C 32.867188 16.269531 32.953125 16.148438 32.992188 16.015625 C 33.035156 15.914062 33.082031 15.808594 33.125 15.699219 C 33.164062 15.613281 33.199219 15.523438 33.238281 15.433594 C 33.238281 15.429688 33.238281 15.425781 33.242188 15.421875 C 33.296875 15.300781 33.375 15.125 33.5 14.8125 C 33.527344 14.742188 33.554688 14.667969 33.570312 14.59375 L 33.566406 14.601562 C 33.609375 14.433594 33.617188 14.238281 33.484375 14.109375 Z M 31.019531 16.03125 C 30.480469 16.984375 29.894531 17.910156 29.273438 18.8125 C 29.214844 18.898438 29.152344 18.984375 29.09375 19.070312 C 28.5625 19.222656 28.019531 19.332031 27.480469 19.445312 C 27.078125 19.53125 26.675781 19.613281 26.273438 19.699219 C 26.277344 19.679688 26.28125 19.660156 26.285156 19.636719 C 26.28125 19.65625 26.277344 19.679688 26.273438 19.699219 C 26.277344 19.695312 26.277344 19.695312 26.277344 19.691406 C 26.332031 19.386719 26.40625 19.089844 26.464844 18.789062 C 26.519531 18.480469 26.542969 18.347656 26.5625 18.226562 C 27.191406 18.195312 27.820312 18.160156 28.445312 18.117188 C 28.488281 18.117188 28.53125 18.113281 28.570312 18.109375 C 28.578125 18.109375 28.585938 18.109375 28.589844 18.109375 C 28.597656 18.109375 28.601562 18.105469 28.605469 18.105469 C 28.660156 18.109375 28.71875 18.089844 28.757812 18.050781 C 28.878906 17.929688 28.789062 17.710938 28.617188 17.714844 C 27.960938 17.675781 27.300781 17.644531 26.644531 17.617188 C 26.738281 16.796875 26.84375 15.453125 26.859375 14.957031 C 26.867188 14.867188 26.851562 14.792969 26.8125 14.730469 C 26.867188 14.738281 26.925781 14.742188 26.980469 14.75 C 28.40625 14.898438 30.101562 15.109375 31.425781 15.273438 C 31.292969 15.527344 31.160156 15.78125 31.019531 16.03125 Z M 31.019531 16.03125 " fill-opacity="1" fill-rule="nonzero"/><path fill="#5271ff" d="M 31.371094 24.757812 C 31.289062 24.460938 31.007812 24.238281 30.703125 24.226562 C 30.566406 24.207031 30.433594 24.191406 30.296875 24.183594 C 29.59375 24.128906 28.894531 24.082031 28.191406 24.039062 C 25.171875 23.863281 22.152344 23.671875 19.128906 23.496094 C 17.632812 23.414062 16.136719 23.375 14.640625 23.292969 C 14.042969 21.625 13.148438 19.101562 12.40625 17.117188 C 11.304688 14.132812 10.160156 11.167969 9.054688 8.1875 C 9.003906 8.050781 8.953125 7.914062 8.902344 7.777344 C 8.824219 7.546875 8.730469 7.324219 8.617188 7.109375 C 8.589844 7.054688 8.597656 7.078125 8.613281 7.117188 C 8.441406 6.730469 8.125 6.386719 7.707031 6.28125 C 7.296875 6.199219 6.882812 6.207031 6.46875 6.191406 C 5.738281 6.171875 5.011719 6.160156 4.28125 6.160156 C 3.832031 6.167969 3.382812 6.179688 2.933594 6.199219 C 2.84375 6.203125 2.757812 6.210938 2.671875 6.214844 C 2.644531 6.214844 2.621094 6.210938 2.59375 6.207031 C 2.558594 6.207031 2.519531 6.210938 2.484375 6.222656 C 2.457031 6.21875 2.433594 6.21875 2.40625 6.21875 C 2.273438 6.214844 2.140625 6.265625 2.023438 6.328125 C 2.003906 6.335938 1.984375 6.347656 1.964844 6.359375 C 1.84375 6.4375 1.753906 6.539062 1.671875 6.660156 C 1.621094 6.761719 1.574219 6.867188 1.546875 6.980469 C 1.523438 7.082031 1.507812 7.1875 1.503906 7.292969 C 1.511719 7.382812 1.523438 7.472656 1.539062 7.5625 C 1.570312 7.667969 1.613281 7.769531 1.667969 7.867188 C 1.761719 8.011719 1.886719 8.125 2.027344 8.222656 C 2.179688 8.316406 2.351562 8.378906 2.523438 8.429688 C 3.148438 8.578125 3.800781 8.574219 4.441406 8.589844 C 5.171875 8.613281 5.90625 8.628906 6.636719 8.652344 C 6.851562 9.210938 7.0625 9.773438 7.273438 10.332031 C 8.40625 13.300781 9.40625 16.320312 10.429688 19.328125 C 10.8125 20.457031 11.179688 21.589844 11.625 22.695312 C 11.605469 22.644531 11.582031 22.59375 11.5625 22.542969 C 11.679688 22.828125 11.792969 23.113281 11.90625 23.398438 C 11.746094 23.523438 11.585938 23.65625 11.429688 23.792969 C 11.472656 23.757812 11.515625 23.726562 11.558594 23.691406 C 11.3125 23.878906 11.085938 24.101562 10.867188 24.320312 C 10.695312 24.507812 10.535156 24.707031 10.394531 24.914062 C 10.300781 25.042969 10.230469 25.191406 10.191406 25.347656 C 10.152344 25.539062 10.171875 25.730469 10.273438 25.902344 C 10.308594 25.945312 10.339844 25.996094 10.378906 26.035156 C 10.425781 26.078125 10.476562 26.117188 10.53125 26.152344 C 10.585938 26.175781 10.636719 26.199219 10.691406 26.21875 C 10.757812 26.234375 10.828125 26.242188 10.894531 26.25 C 11.261719 26.230469 11.589844 26.027344 11.875 25.8125 C 12.332031 25.464844 12.765625 25.085938 13.183594 24.691406 C 13.203125 24.671875 13.222656 24.65625 13.242188 24.636719 C 13.328125 24.648438 13.417969 24.65625 13.507812 24.664062 C 15.371094 24.847656 17.242188 24.859375 19.113281 24.964844 C 20.605469 25.046875 22.09375 25.152344 23.585938 25.242188 C 25.285156 25.34375 26.984375 25.441406 28.679688 25.550781 C 29.226562 25.582031 29.773438 25.617188 30.316406 25.660156 C 30.527344 25.667969 30.757812 25.714844 30.949219 25.613281 C 31.21875 25.519531 31.398438 25.230469 31.394531 24.949219 C 31.386719 24.886719 31.378906 24.820312 31.371094 24.757812 Z M 31.371094 24.757812 " fill-opacity="1" fill-rule="nonzero"/><g clip-path="url(#c99722bf35)"><path fill="#5271ff" d="M 15.949219 28.101562 C 15.949219 28.394531 15.886719 28.675781 15.761719 28.945312 C 15.636719 29.214844 15.460938 29.453125 15.230469 29.660156 C 15.003906 29.867188 14.738281 30.023438 14.4375 30.136719 C 14.136719 30.246094 13.824219 30.304688 13.5 30.304688 C 13.175781 30.304688 12.863281 30.246094 12.5625 30.136719 C 12.265625 30.023438 12 29.867188 11.769531 29.660156 C 11.539062 29.453125 11.363281 29.214844 11.238281 28.945312 C 11.117188 28.675781 11.054688 28.394531 11.054688 28.101562 C 11.054688 27.808594 11.117188 27.527344 11.238281 27.257812 C 11.363281 26.988281 11.539062 26.75 11.769531 26.542969 C 12 26.335938 12.265625 26.179688 12.5625 26.066406 C 12.863281 25.953125 13.175781 25.898438 13.5 25.898438 C 13.824219 25.898438 14.136719 25.953125 14.4375 26.066406 C 14.738281 26.179688 15.003906 26.335938 15.230469 26.542969 C 15.460938 26.75 15.636719 26.988281 15.761719 27.257812 C 15.886719 27.527344 15.949219 27.808594 15.949219 28.101562 Z M 15.949219 28.101562 " fill-opacity="1" fill-rule="nonzero"/></g><g clip-path="url(#32f319dc11)"><path fill="#5271ff" d="M 30.714844 28.101562 C 30.714844 28.394531 30.652344 28.675781 30.527344 28.945312 C 30.40625 29.214844 30.226562 29.453125 29.996094 29.660156 C 29.769531 29.867188 29.503906 30.023438 29.203125 30.136719 C 28.902344 30.246094 28.59375 30.304688 28.265625 30.304688 C 27.941406 30.304688 27.628906 30.246094 27.332031 30.136719 C 27.03125 30.023438 26.765625 29.867188 26.535156 29.660156 C 26.308594 29.453125 26.128906 29.214844 26.007812 28.945312 C 25.882812 28.675781 25.820312 28.394531 25.820312 28.101562 C 25.820312 27.808594 25.882812 27.527344 26.007812 27.257812 C 26.128906 26.988281 26.308594 26.75 26.535156 26.542969 C 26.765625 26.335938 27.03125 26.179688 27.332031 26.066406 C 27.628906 25.953125 27.941406 25.898438 28.265625 25.898438 C 28.59375 25.898438 28.902344 25.953125 29.203125 26.066406 C 29.503906 26.179688 29.769531 26.335938 29.996094 26.542969 C 30.226562 26.75 30.40625 26.988281 30.527344 27.257812 C 30.652344 27.527344 30.714844 27.808594 30.714844 28.101562 Z M 30.714844 28.101562 " fill-opacity="1" fill-rule="nonzero"/></g></svg>