<svg xmlns="http://www.w3.org/2000/svg" xmlns:xlink="http://www.w3.org/1999/xlink" width="140" height="70" zoomAndPan="magnify" viewBox="0 0 140 70" preserveAspectRatio="xMidYMid meet" version="1.0"><defs><g/></defs><path fill="#ffc021" d="M 22.824219 34.519531 C 21.394531 30.324219 22.238281 25.421875 24.992188 21.945312 C 26.65625 19.84375 29.152344 18.210938 31.832031 18.300781 C 33.742188 18.363281 35.523438 19.285156 37.105469 20.363281 C 38.6875 21.441406 40.152344 22.707031 41.84375 23.601562 C 45.21875 25.394531 49.183594 25.585938 52.996094 25.773438 C 54.835938 25.863281 56.765625 25.988281 58.320312 26.96875 C 60.804688 28.535156 61.605469 32.015625 60.664062 34.800781 C 59.722656 37.582031 57.386719 39.703125 54.808594 41.109375 C 49.683594 43.90625 43.585938 44.265625 37.757812 43.945312 C 35.273438 43.808594 32.773438 43.554688 30.410156 42.777344 C 28.046875 42 25.8125 40.65625 24.320312 38.667969 C 22.828125 36.675781 22.164062 33.988281 22.824219 34.519531 Z M 22.824219 34.519531 " fill-opacity="1" fill-rule="nonzero"/><path fill="#5271ff" d="M 32.726562 34.808594 C 32.730469 34.839844 32.738281 34.882812 32.742188 34.910156 C 32.738281 34.875 32.734375 34.839844 32.726562 34.808594 Z M 32.726562 34.808594 " fill-opacity="1" fill-rule="nonzero"/><path fill="#5271ff" d="M 41.960938 33.050781 C 41.964844 33.054688 41.964844 33.054688 41.964844 33.058594 C 41.964844 33.054688 41.964844 33.054688 41.960938 33.050781 Z M 41.960938 33.050781 " fill-opacity="1" fill-rule="nonzero"/><path fill="#5271ff" d="M 61.628906 32.773438 C 61.460938 32.597656 61.214844 32.539062 60.988281 32.480469 C 60.679688 32.40625 60.367188 32.347656 60.054688 32.289062 C 59.292969 32.15625 58.535156 32.007812 57.777344 31.875 C 55.179688 31.410156 52.578125 30.953125 49.96875 30.558594 C 45.9375 29.949219 41.898438 29.410156 37.878906 28.730469 C 35.773438 28.359375 33.675781 27.957031 31.582031 27.542969 C 30 27.234375 28.425781 26.894531 26.835938 26.628906 C 26.320312 26.539062 25.804688 26.449219 25.289062 26.375 C 24.957031 26.328125 24.621094 26.242188 24.285156 26.289062 C 24.105469 26.324219 23.933594 26.449219 23.886719 26.628906 C 23.867188 26.691406 23.863281 26.761719 23.875 26.824219 C 23.890625 26.894531 23.90625 26.960938 23.914062 27.027344 C 23.914062 27.050781 23.921875 27.078125 23.925781 27.101562 C 24.359375 28.472656 28.433594 30.386719 32.070312 31.265625 C 33.65625 31.648438 35.269531 31.914062 36.882812 32.15625 C 41.191406 32.78125 45.523438 33.230469 49.851562 33.699219 C 49.796875 33.757812 49.75 33.835938 49.722656 33.929688 C 49.523438 34.832031 49.527344 35.804688 49.390625 37.058594 C 49.34375 37.527344 49.292969 37.996094 49.25 38.46875 C 48.835938 38.453125 48.421875 38.441406 48.007812 38.429688 C 46.207031 38.382812 44.40625 38.363281 42.605469 38.355469 C 42.519531 36.980469 42.445312 35.542969 42.257812 34.570312 C 42.265625 34.617188 42.269531 34.664062 42.277344 34.707031 C 42.199219 34.203125 42.144531 34.039062 42.089844 33.730469 C 42.058594 33.574219 42.027344 33.414062 41.996094 33.257812 C 41.992188 33.253906 41.992188 33.246094 41.992188 33.242188 C 41.984375 33.195312 41.976562 33.148438 41.972656 33.105469 C 41.96875 33.089844 41.96875 33.074219 41.964844 33.058594 C 41.964844 33.058594 41.964844 33.0625 41.964844 33.0625 C 41.964844 33.0625 41.964844 33.058594 41.964844 33.058594 C 41.949219 33.003906 41.921875 32.953125 41.882812 32.914062 C 41.804688 32.832031 41.691406 32.808594 41.582031 32.832031 C 41.34375 32.902344 41.347656 33.128906 41.351562 33.335938 C 41.355469 33.308594 41.359375 33.277344 41.363281 33.25 C 41.339844 33.390625 41.339844 33.535156 41.328125 33.675781 C 41.320312 33.789062 41.3125 33.90625 41.304688 34.019531 C 41.3125 33.984375 41.316406 33.945312 41.320312 33.910156 C 41.167969 35.25 41.292969 36.597656 41.371094 37.941406 C 41.378906 38.078125 41.390625 38.214844 41.398438 38.351562 C 39.121094 38.347656 36.847656 38.355469 34.570312 38.34375 C 34.40625 37.4375 34.238281 36.527344 34.054688 35.625 C 33.90625 34.859375 33.695312 34.113281 33.453125 33.378906 C 33.394531 33.1875 33.335938 32.996094 33.277344 32.808594 C 33.273438 32.789062 33.257812 32.75 33.246094 32.71875 C 33.25 32.726562 33.253906 32.738281 33.257812 32.746094 C 33.25 32.699219 33.226562 32.65625 33.195312 32.621094 C 33.148438 32.550781 33.0625 32.5 32.972656 32.496094 C 32.8125 32.460938 32.644531 32.582031 32.601562 32.738281 C 32.585938 32.769531 32.589844 32.828125 32.59375 32.867188 C 32.601562 33.050781 32.613281 33.234375 32.621094 33.417969 C 32.667969 34.128906 32.660156 34.269531 32.722656 34.777344 C 32.722656 34.773438 32.722656 34.769531 32.722656 34.769531 C 32.722656 34.777344 32.726562 34.785156 32.726562 34.792969 C 32.726562 34.796875 32.726562 34.804688 32.726562 34.808594 C 32.726562 34.804688 32.726562 34.800781 32.726562 34.796875 C 32.875 35.875 33.101562 36.941406 33.296875 38.011719 C 33.316406 38.117188 33.335938 38.226562 33.359375 38.335938 C 33.035156 38.332031 32.710938 38.328125 32.386719 38.324219 C 31.484375 38.316406 30.578125 38.296875 29.675781 38.285156 C 29.375 38.277344 29.078125 38.277344 28.777344 38.277344 C 28.644531 38.28125 28.503906 38.25 28.382812 38.316406 C 27.925781 38.496094 28.058594 39.195312 28.558594 39.195312 C 30.222656 39.28125 31.890625 39.339844 33.554688 39.386719 C 33.742188 40.367188 33.933594 41.34375 34.140625 42.320312 C 34.242188 42.820312 34.328125 43.324219 34.410156 43.828125 C 34.414062 43.855469 34.417969 43.898438 34.421875 43.925781 C 34.425781 43.980469 34.433594 44.039062 34.445312 44.09375 L 34.445312 44.097656 C 34.386719 44.5 34.890625 44.820312 35.234375 44.488281 C 35.308594 44.40625 35.351562 44.324219 35.378906 44.222656 C 35.382812 44.199219 35.386719 44.175781 35.390625 44.152344 C 35.386719 44.164062 35.386719 44.175781 35.382812 44.1875 C 35.40625 44.140625 35.402344 44.089844 35.402344 44.039062 C 35.40625 44.011719 35.410156 43.980469 35.414062 43.953125 C 35.40625 43.996094 35.402344 44.039062 35.394531 44.082031 C 35.445312 43.816406 35.394531 43.535156 35.371094 43.265625 C 35.289062 42.4375 35.15625 41.613281 35.007812 40.792969 C 34.925781 40.335938 34.84375 39.875 34.761719 39.417969 C 37 39.46875 39.238281 39.496094 41.476562 39.519531 C 41.554688 40.65625 41.636719 41.792969 41.683594 42.929688 C 41.707031 43.707031 42.828125 43.710938 42.859375 42.929688 C 42.882812 42.308594 42.8125 41.691406 42.78125 41.070312 C 42.746094 40.558594 42.714844 40.046875 42.679688 39.53125 C 43.914062 39.546875 45.144531 39.558594 46.378906 39.574219 C 47.304688 39.585938 48.230469 39.574219 49.152344 39.546875 C 49.113281 40.085938 49.089844 40.625 49.097656 41.167969 C 49.101562 41.46875 49.105469 41.769531 49.109375 42.070312 C 48.84375 42.125 48.582031 42.183594 48.320312 42.242188 C 45.613281 42.835938 42.921875 43.5 40.203125 44.050781 C 37.558594 44.636719 34.882812 45.054688 32.214844 45.511719 C 31.988281 45.554688 31.761719 45.585938 31.539062 45.621094 C 31.414062 45.640625 31.285156 45.644531 31.175781 45.710938 C 31.039062 45.800781 30.9375 45.972656 30.972656 46.140625 C 30.984375 46.304688 31.121094 46.453125 31.28125 46.496094 C 31.40625 46.523438 31.535156 46.496094 31.660156 46.484375 C 32.035156 46.441406 32.410156 46.394531 32.78125 46.347656 C 33.03125 46.320312 33.269531 46.292969 33.503906 46.261719 C 33.863281 46.222656 34.21875 46.179688 34.578125 46.140625 C 40.578125 45.53125 46.613281 45.171875 52.5625 44.148438 C 53.488281 43.996094 54.40625 43.832031 55.328125 43.671875 L 55.175781 43.691406 C 55.378906 43.660156 55.582031 43.628906 55.78125 43.582031 C 55.949219 43.589844 56.113281 43.523438 56.273438 43.480469 C 56.515625 43.398438 56.765625 43.308594 56.96875 43.152344 C 57.5 42.785156 57.75 42.171875 58.011719 41.605469 C 58.492188 40.5625 58.984375 39.527344 59.515625 38.511719 C 59.863281 37.847656 60.203125 37.179688 60.535156 36.507812 C 60.621094 36.304688 60.757812 36.109375 60.824219 35.894531 C 60.898438 35.722656 60.972656 35.550781 61.042969 35.378906 C 61.105469 35.230469 61.164062 35.085938 61.226562 34.941406 C 61.226562 34.9375 61.230469 34.929688 61.234375 34.925781 C 61.324219 34.726562 61.453125 34.4375 61.65625 33.925781 C 61.699219 33.808594 61.742188 33.691406 61.769531 33.570312 L 61.765625 33.582031 C 61.835938 33.304688 61.84375 32.988281 61.628906 32.773438 Z M 57.601562 35.914062 C 56.722656 37.476562 55.761719 38.988281 54.746094 40.464844 C 54.652344 40.605469 54.554688 40.746094 54.453125 40.882812 C 53.585938 41.128906 52.703125 41.3125 51.820312 41.496094 C 51.164062 41.636719 50.503906 41.773438 49.847656 41.910156 C 49.851562 41.878906 49.859375 41.84375 49.863281 41.808594 C 49.859375 41.84375 49.855469 41.878906 49.847656 41.910156 C 49.851562 41.90625 49.851562 41.902344 49.851562 41.898438 C 49.9375 41.402344 50.0625 40.917969 50.160156 40.425781 C 50.25 39.917969 50.289062 39.703125 50.320312 39.5 C 51.347656 39.457031 52.371094 39.394531 53.398438 39.328125 C 53.464844 39.324219 53.535156 39.316406 53.601562 39.3125 C 53.613281 39.3125 53.625 39.3125 53.632812 39.3125 C 53.640625 39.308594 53.648438 39.308594 53.65625 39.308594 C 53.75 39.3125 53.839844 39.28125 53.90625 39.214844 C 54.101562 39.023438 53.960938 38.660156 53.679688 38.667969 C 52.601562 38.605469 51.527344 38.554688 50.449219 38.511719 C 50.605469 37.167969 50.78125 34.972656 50.804688 34.160156 C 50.820312 34.015625 50.789062 33.890625 50.730469 33.792969 C 50.820312 33.804688 50.910156 33.8125 51 33.824219 C 53.335938 34.0625 56.101562 34.410156 58.265625 34.679688 C 58.050781 35.09375 57.828125 35.507812 57.601562 35.914062 Z M 57.601562 35.914062 " fill-opacity="1" fill-rule="nonzero"/><path fill="#5271ff" d="M 58.175781 50.175781 C 58.046875 49.691406 57.582031 49.328125 57.082031 49.308594 C 56.863281 49.273438 56.644531 49.25 56.421875 49.234375 C 55.273438 49.148438 54.128906 49.074219 52.980469 49.003906 C 48.042969 48.710938 43.109375 48.402344 38.175781 48.113281 C 35.730469 47.984375 33.28125 47.917969 30.839844 47.78125 C 29.863281 45.054688 28.402344 40.933594 27.1875 37.691406 C 25.386719 32.816406 23.519531 27.96875 21.714844 23.097656 C 21.628906 22.875 21.546875 22.652344 21.460938 22.429688 C 21.335938 22.054688 21.183594 21.6875 20.996094 21.335938 C 20.953125 21.25 20.96875 21.289062 20.992188 21.351562 C 20.707031 20.722656 20.1875 20.160156 19.507812 19.984375 C 18.839844 19.855469 18.160156 19.867188 17.484375 19.839844 C 16.292969 19.804688 15.105469 19.789062 13.914062 19.785156 C 13.179688 19.796875 12.441406 19.820312 11.707031 19.851562 C 11.5625 19.859375 11.421875 19.867188 11.28125 19.878906 C 11.238281 19.875 11.195312 19.871094 11.15625 19.867188 C 11.09375 19.863281 11.035156 19.871094 10.972656 19.886719 C 10.933594 19.882812 10.890625 19.882812 10.847656 19.882812 C 10.628906 19.875 10.410156 19.957031 10.21875 20.058594 C 10.1875 20.074219 10.15625 20.089844 10.125 20.109375 C 9.925781 20.238281 9.78125 20.410156 9.648438 20.605469 C 9.566406 20.773438 9.488281 20.945312 9.441406 21.125 C 9.40625 21.292969 9.378906 21.464844 9.375 21.636719 C 9.382812 21.78125 9.40625 21.929688 9.429688 22.074219 C 9.480469 22.25 9.550781 22.421875 9.640625 22.574219 C 9.792969 22.8125 10 22.996094 10.230469 23.15625 C 10.476562 23.308594 10.761719 23.414062 11.039062 23.496094 C 12.0625 23.742188 13.125 23.734375 14.171875 23.757812 C 15.367188 23.796875 16.5625 23.820312 17.761719 23.859375 C 18.109375 24.773438 18.457031 25.6875 18.800781 26.605469 C 20.648438 31.457031 22.285156 36.390625 23.957031 41.304688 C 24.582031 43.148438 25.1875 45 25.910156 46.804688 C 25.878906 46.722656 25.84375 46.640625 25.808594 46.558594 C 26 47.023438 26.183594 47.492188 26.371094 47.953125 C 26.105469 48.160156 25.84375 48.375 25.589844 48.597656 C 25.660156 48.542969 25.734375 48.488281 25.804688 48.433594 C 25.398438 48.742188 25.03125 49.105469 24.671875 49.464844 C 24.390625 49.765625 24.132812 50.089844 23.898438 50.429688 C 23.75 50.644531 23.628906 50.886719 23.570312 51.136719 C 23.503906 51.457031 23.535156 51.765625 23.703125 52.046875 C 23.761719 52.117188 23.808594 52.199219 23.871094 52.265625 C 23.953125 52.332031 24.035156 52.398438 24.125 52.457031 C 24.210938 52.492188 24.296875 52.53125 24.386719 52.566406 C 24.496094 52.585938 24.609375 52.601562 24.71875 52.613281 C 25.320312 52.582031 25.855469 52.253906 26.320312 51.898438 C 27.066406 51.332031 27.773438 50.710938 28.457031 50.070312 C 28.488281 50.039062 28.519531 50.007812 28.554688 49.980469 C 28.695312 49.996094 28.839844 50.011719 28.984375 50.023438 C 32.03125 50.320312 35.09375 50.339844 38.144531 50.515625 C 40.582031 50.648438 43.019531 50.820312 45.457031 50.964844 C 48.230469 51.132812 51.003906 51.292969 53.777344 51.46875 C 54.671875 51.527344 55.5625 51.582031 56.453125 51.648438 C 56.796875 51.664062 57.171875 51.738281 57.488281 51.570312 C 57.929688 51.421875 58.21875 50.945312 58.214844 50.492188 C 58.203125 50.386719 58.1875 50.28125 58.175781 50.175781 Z M 58.175781 50.175781 " fill-opacity="1" fill-rule="nonzero"/><path fill="#5271ff" d="M 32.976562 55.640625 C 32.976562 56.117188 32.875 56.574219 32.671875 57.015625 C 32.46875 57.457031 32.179688 57.847656 31.804688 58.183594 C 31.429688 58.523438 30.996094 58.78125 30.507812 58.964844 C 30.015625 59.148438 29.507812 59.238281 28.976562 59.238281 C 28.445312 59.238281 27.9375 59.148438 27.445312 58.964844 C 26.957031 58.78125 26.523438 58.523438 26.148438 58.183594 C 25.773438 57.847656 25.484375 57.457031 25.28125 57.015625 C 25.078125 56.574219 24.976562 56.117188 24.976562 55.640625 C 24.976562 55.164062 25.078125 54.703125 25.28125 54.261719 C 25.484375 53.820312 25.773438 53.433594 26.148438 53.09375 C 26.523438 52.757812 26.957031 52.496094 27.445312 52.316406 C 27.9375 52.132812 28.445312 52.039062 28.976562 52.039062 C 29.507812 52.039062 30.015625 52.132812 30.507812 52.316406 C 30.996094 52.496094 31.429688 52.757812 31.804688 53.09375 C 32.179688 53.433594 32.46875 53.820312 32.671875 54.261719 C 32.875 54.703125 32.976562 55.164062 32.976562 55.640625 Z M 32.976562 55.640625 " fill-opacity="1" fill-rule="nonzero"/><path fill="#5271ff" d="M 57.105469 55.640625 C 57.105469 56.117188 57.003906 56.574219 56.800781 57.015625 C 56.597656 57.457031 56.308594 57.847656 55.933594 58.183594 C 55.558594 58.523438 55.125 58.78125 54.636719 58.964844 C 54.144531 59.148438 53.636719 59.238281 53.105469 59.238281 C 52.574219 59.238281 52.0625 59.148438 51.574219 58.964844 C 51.085938 58.78125 50.652344 58.523438 50.277344 58.183594 C 49.902344 57.847656 49.613281 57.457031 49.410156 57.015625 C 49.207031 56.574219 49.105469 56.117188 49.105469 55.640625 C 49.105469 55.164062 49.207031 54.703125 49.410156 54.261719 C 49.613281 53.820312 49.902344 53.433594 50.277344 53.09375 C 50.652344 52.757812 51.085938 52.496094 51.574219 52.316406 C 52.0625 52.132812 52.574219 52.039062 53.105469 52.039062 C 53.636719 52.039062 54.144531 52.132812 54.636719 52.316406 C 55.125 52.496094 55.558594 52.757812 55.933594 53.09375 C 56.308594 53.433594 56.597656 53.820312 56.800781 54.261719 C 57.003906 54.703125 57.105469 55.164062 57.105469 55.640625 Z M 57.105469 55.640625 " fill-opacity="1" fill-rule="nonzero"/><g fill="#5271ff" fill-opacity="1"><g transform="translate(69.83238, 47.412089)"><g><path d="M 10.59375 -16.1875 L 10.59375 0 L 6.546875 0 L 6.546875 -16.1875 L 0.3125 -16.1875 L 0.3125 -19.3125 L 16.84375 -19.3125 L 16.84375 -16.1875 Z M 10.59375 -16.1875 "/></g></g></g><g fill="#5271ff" fill-opacity="1"><g transform="translate(85.997832, 47.412089)"><g/></g></g><g fill="#5271ff" fill-opacity="1"><g transform="translate(92.814715, 47.412089)"><g><path d="M 1.234375 -5.28125 C 1.234375 -6.507812 1.601562 -7.601562 2.34375 -8.5625 C 3.082031 -9.53125 4.257812 -10.390625 5.875 -11.140625 C 5.195312 -12.515625 4.859375 -13.789062 4.859375 -14.96875 C 4.859375 -16.394531 5.304688 -17.492188 6.203125 -18.265625 C 7.097656 -19.035156 8.367188 -19.421875 10.015625 -19.421875 C 11.554688 -19.421875 12.769531 -19.054688 13.65625 -18.328125 C 14.550781 -17.597656 15 -16.609375 15 -15.359375 C 15 -14.648438 14.816406 -14.007812 14.453125 -13.4375 C 14.097656 -12.875 13.59375 -12.347656 12.9375 -11.859375 C 12.289062 -11.378906 11.1875 -10.773438 9.625 -10.046875 C 10.53125 -8.453125 11.644531 -6.914062 12.96875 -5.4375 C 13.914062 -6.882812 14.640625 -8.546875 15.140625 -10.421875 L 18 -9.453125 C 17.375 -7.328125 16.492188 -5.410156 15.359375 -3.703125 C 16.140625 -3.035156 16.953125 -2.703125 17.796875 -2.703125 C 18.390625 -2.703125 18.925781 -2.773438 19.40625 -2.921875 L 19.40625 -0.140625 C 18.894531 0.0664062 18.296875 0.171875 17.609375 0.171875 C 16.816406 0.171875 16.023438 0.03125 15.234375 -0.25 C 14.441406 -0.539062 13.722656 -0.957031 13.078125 -1.5 C 11.523438 -0.3125 9.796875 0.28125 7.890625 0.28125 C 5.773438 0.28125 4.132812 -0.203125 2.96875 -1.171875 C 1.8125 -2.148438 1.234375 -3.519531 1.234375 -5.28125 Z M 11.921875 -15.328125 C 11.921875 -15.847656 11.75 -16.269531 11.40625 -16.59375 C 11.0625 -16.925781 10.59375 -17.09375 10 -17.09375 C 9.289062 -17.09375 8.75 -16.894531 8.375 -16.5 C 8.007812 -16.113281 7.828125 -15.59375 7.828125 -14.9375 C 7.828125 -14.144531 8.070312 -13.265625 8.5625 -12.296875 C 9.53125 -12.710938 10.21875 -13.0625 10.625 -13.34375 C 11.039062 -13.625 11.359375 -13.921875 11.578125 -14.234375 C 11.804688 -14.554688 11.921875 -14.921875 11.921875 -15.328125 Z M 10.796875 -3.375 C 9.285156 -5.0625 8.046875 -6.785156 7.078125 -8.546875 C 5.503906 -7.804688 4.71875 -6.734375 4.71875 -5.328125 C 4.71875 -4.421875 5.015625 -3.691406 5.609375 -3.140625 C 6.203125 -2.597656 7.007812 -2.328125 8.03125 -2.328125 C 8.625 -2.328125 9.160156 -2.4375 9.640625 -2.65625 C 10.117188 -2.875 10.503906 -3.113281 10.796875 -3.375 Z M 10.796875 -3.375 "/></g></g></g><g fill="#5271ff" fill-opacity="1"><g transform="translate(112.105497, 47.412089)"><g/></g></g><g fill="#5271ff" fill-opacity="1"><g transform="translate(118.922378, 47.412089)"><g><path d="M 19 -5.515625 C 19 -3.753906 18.335938 -2.394531 17.015625 -1.4375 C 15.703125 -0.476562 13.878906 0 11.546875 0 L 1.875 0 L 1.875 -19.3125 L 10.71875 -19.3125 C 13.082031 -19.3125 14.867188 -18.898438 16.078125 -18.078125 C 17.285156 -17.265625 17.890625 -16.0625 17.890625 -14.46875 C 17.890625 -13.363281 17.582031 -12.4375 16.96875 -11.6875 C 16.363281 -10.9375 15.441406 -10.425781 14.203125 -10.15625 C 15.765625 -9.976562 16.953125 -9.488281 17.765625 -8.6875 C 18.585938 -7.882812 19 -6.828125 19 -5.515625 Z M 13.8125 -13.921875 C 13.8125 -14.785156 13.535156 -15.398438 12.984375 -15.765625 C 12.429688 -16.128906 11.613281 -16.3125 10.53125 -16.3125 L 5.921875 -16.3125 L 5.921875 -11.53125 L 10.5625 -11.53125 C 11.695312 -11.53125 12.519531 -11.726562 13.03125 -12.125 C 13.550781 -12.519531 13.8125 -13.117188 13.8125 -13.921875 Z M 14.9375 -5.828125 C 14.9375 -7.640625 13.640625 -8.546875 11.046875 -8.546875 L 5.921875 -8.546875 L 5.921875 -3 L 11.203125 -3 C 12.492188 -3 13.4375 -3.234375 14.03125 -3.703125 C 14.632812 -4.179688 14.9375 -4.890625 14.9375 -5.828125 Z M 14.9375 -5.828125 "/></g></g></g></svg>