<svg xmlns="http://www.w3.org/2000/svg" xmlns:xlink="http://www.w3.org/1999/xlink" width="113" zoomAndPan="magnify" viewBox="0 0 84.75 42.75" height="57" preserveAspectRatio="xMidYMid meet" version="1.0"><defs><g/><clipPath id="20eedf903e"><path d="M 0.121094 0 L 84.378906 0 L 84.378906 42.5 L 0.121094 42.5 Z M 0.121094 0 " clip-rule="nonzero"/></clipPath></defs><g clip-path="url(#20eedf903e)"><path fill="#ffffff" d="M 0.121094 0 L 84.378906 0 L 84.378906 42.5 L 0.121094 42.5 Z M 0.121094 0 " fill-opacity="1" fill-rule="nonzero"/><path fill="#f4f6fc" d="M 0.121094 0 L 84.378906 0 L 84.378906 42.5 L 0.121094 42.5 Z M 0.121094 0 " fill-opacity="1" fill-rule="nonzero"/></g><path fill="#ffc021" d="M 9.449219 19.371094 C 8.566406 16.78125 9.085938 13.761719 10.785156 11.617188 C 11.8125 10.320312 13.351562 9.3125 15.003906 9.367188 C 16.183594 9.40625 17.28125 9.976562 18.257812 10.640625 C 19.234375 11.304688 20.136719 12.085938 21.179688 12.636719 C 23.261719 13.742188 25.707031 13.863281 28.058594 13.976562 C 29.195312 14.03125 30.382812 14.109375 31.34375 14.714844 C 32.875 15.683594 33.367188 17.828125 32.789062 19.542969 C 32.210938 21.261719 30.769531 22.570312 29.175781 23.4375 C 26.015625 25.164062 22.257812 25.382812 18.660156 25.1875 C 17.128906 25.101562 15.585938 24.945312 14.128906 24.464844 C 12.671875 23.984375 11.292969 23.15625 10.371094 21.929688 C 9.449219 20.703125 9.042969 19.042969 9.449219 19.371094 Z M 9.449219 19.371094 " fill-opacity="1" fill-rule="nonzero"/><path fill="#5271ff" d="M 15.558594 19.550781 C 15.558594 19.570312 15.5625 19.59375 15.566406 19.613281 C 15.5625 19.589844 15.5625 19.570312 15.558594 19.550781 Z M 15.558594 19.550781 " fill-opacity="1" fill-rule="nonzero"/><path fill="#5271ff" d="M 33.382812 18.296875 C 33.28125 18.1875 33.128906 18.148438 32.988281 18.113281 C 32.796875 18.070312 32.605469 18.03125 32.414062 17.996094 C 31.945312 17.914062 31.476562 17.824219 31.007812 17.738281 C 29.40625 17.453125 27.800781 17.171875 26.191406 16.929688 C 23.707031 16.554688 21.214844 16.21875 18.734375 15.800781 C 17.4375 15.574219 16.144531 15.324219 14.851562 15.070312 C 13.875 14.878906 12.902344 14.667969 11.921875 14.503906 C 11.605469 14.449219 11.289062 14.394531 10.96875 14.347656 C 10.765625 14.320312 10.554688 14.265625 10.351562 14.296875 C 10.238281 14.316406 10.132812 14.394531 10.105469 14.507812 C 10.09375 14.542969 10.089844 14.585938 10.097656 14.625 C 10.105469 14.667969 10.117188 14.710938 10.121094 14.75 C 10.121094 14.765625 10.125 14.78125 10.128906 14.796875 C 10.398438 15.640625 12.910156 16.824219 15.152344 17.367188 C 16.128906 17.601562 17.125 17.765625 18.121094 17.914062 C 20.777344 18.300781 23.449219 18.578125 26.121094 18.867188 C 26.085938 18.902344 26.058594 18.949219 26.039062 19.007812 C 25.917969 19.5625 25.917969 20.164062 25.835938 20.9375 C 25.808594 21.226562 25.777344 21.515625 25.746094 21.808594 C 25.492188 21.796875 25.238281 21.789062 24.980469 21.785156 C 23.871094 21.753906 22.761719 21.742188 21.648438 21.738281 C 21.597656 20.890625 21.550781 20.003906 21.4375 19.402344 C 21.441406 19.433594 21.445312 19.460938 21.449219 19.488281 C 21.398438 19.175781 21.367188 19.074219 21.332031 18.886719 C 21.3125 18.789062 21.292969 18.691406 21.273438 18.59375 C 21.273438 18.589844 21.273438 18.585938 21.273438 18.582031 C 21.265625 18.554688 21.261719 18.527344 21.257812 18.5 C 21.257812 18.488281 21.257812 18.480469 21.253906 18.46875 C 21.253906 18.472656 21.253906 18.472656 21.253906 18.472656 C 21.253906 18.472656 21.253906 18.472656 21.253906 18.46875 C 21.246094 18.4375 21.230469 18.40625 21.203125 18.378906 C 21.15625 18.332031 21.085938 18.316406 21.019531 18.332031 C 20.871094 18.375 20.875 18.515625 20.878906 18.640625 C 20.878906 18.625 20.882812 18.605469 20.882812 18.589844 C 20.871094 18.675781 20.871094 18.765625 20.863281 18.851562 C 20.859375 18.921875 20.851562 18.992188 20.847656 19.0625 C 20.851562 19.042969 20.855469 19.019531 20.859375 18.996094 C 20.765625 19.820312 20.839844 20.65625 20.890625 21.480469 C 20.894531 21.566406 20.898438 21.652344 20.90625 21.734375 C 19.503906 21.734375 18.097656 21.738281 16.695312 21.730469 C 16.59375 21.171875 16.488281 20.609375 16.375 20.054688 C 16.285156 19.582031 16.152344 19.121094 16.003906 18.667969 C 15.96875 18.550781 15.933594 18.433594 15.898438 18.316406 C 15.894531 18.304688 15.886719 18.28125 15.878906 18.261719 C 15.878906 18.265625 15.882812 18.273438 15.886719 18.277344 C 15.878906 18.25 15.867188 18.222656 15.847656 18.203125 C 15.816406 18.15625 15.761719 18.125 15.710938 18.121094 C 15.609375 18.101562 15.507812 18.175781 15.480469 18.273438 C 15.472656 18.292969 15.472656 18.328125 15.472656 18.351562 C 15.480469 18.464844 15.488281 18.578125 15.492188 18.691406 C 15.519531 19.132812 15.515625 19.21875 15.554688 19.53125 C 15.554688 19.527344 15.554688 19.527344 15.554688 19.527344 C 15.554688 19.53125 15.554688 19.535156 15.554688 19.539062 C 15.558594 19.542969 15.558594 19.546875 15.558594 19.550781 C 15.558594 19.546875 15.558594 19.546875 15.558594 19.542969 C 15.648438 20.207031 15.789062 20.867188 15.910156 21.523438 C 15.921875 21.59375 15.933594 21.660156 15.945312 21.726562 C 15.746094 21.722656 15.546875 21.722656 15.347656 21.71875 C 14.789062 21.714844 14.234375 21.703125 13.675781 21.695312 C 13.488281 21.691406 13.304688 21.691406 13.121094 21.691406 C 13.039062 21.691406 12.953125 21.671875 12.878906 21.714844 C 12.597656 21.824219 12.675781 22.253906 12.988281 22.257812 C 14.011719 22.308594 15.039062 22.347656 16.070312 22.375 C 16.183594 22.976562 16.300781 23.582031 16.429688 24.183594 C 16.492188 24.492188 16.546875 24.804688 16.59375 25.113281 C 16.597656 25.128906 16.601562 25.15625 16.601562 25.171875 C 16.605469 25.207031 16.609375 25.242188 16.617188 25.277344 L 16.617188 25.28125 C 16.582031 25.527344 16.890625 25.722656 17.101562 25.519531 C 17.148438 25.46875 17.175781 25.417969 17.191406 25.355469 C 17.195312 25.339844 17.195312 25.328125 17.199219 25.3125 C 17.199219 25.320312 17.195312 25.328125 17.195312 25.335938 C 17.207031 25.308594 17.207031 25.277344 17.207031 25.242188 C 17.210938 25.226562 17.214844 25.207031 17.214844 25.191406 C 17.210938 25.21875 17.207031 25.242188 17.203125 25.269531 C 17.234375 25.105469 17.203125 24.933594 17.1875 24.765625 C 17.136719 24.253906 17.054688 23.746094 16.964844 23.242188 C 16.914062 22.957031 16.863281 22.675781 16.8125 22.390625 C 18.191406 22.425781 19.574219 22.441406 20.953125 22.457031 C 21 23.15625 21.050781 23.859375 21.082031 24.558594 C 21.097656 25.039062 21.789062 25.042969 21.808594 24.558594 C 21.820312 24.175781 21.777344 23.796875 21.757812 23.414062 C 21.738281 23.097656 21.714844 22.78125 21.695312 22.464844 C 22.457031 22.472656 23.214844 22.480469 23.976562 22.488281 C 24.546875 22.496094 25.117188 22.488281 25.6875 22.472656 C 25.664062 22.804688 25.652344 23.140625 25.65625 23.472656 C 25.65625 23.660156 25.660156 23.84375 25.660156 24.027344 C 25.5 24.0625 25.335938 24.097656 25.175781 24.132812 C 23.507812 24.5 21.84375 24.910156 20.167969 25.25 C 18.539062 25.609375 16.886719 25.871094 15.242188 26.152344 C 15.101562 26.179688 14.960938 26.199219 14.824219 26.21875 C 14.75 26.230469 14.667969 26.234375 14.601562 26.273438 C 14.515625 26.332031 14.453125 26.433594 14.476562 26.539062 C 14.484375 26.640625 14.566406 26.730469 14.664062 26.757812 C 14.742188 26.777344 14.820312 26.757812 14.898438 26.75 C 15.128906 26.722656 15.359375 26.695312 15.589844 26.667969 C 15.746094 26.652344 15.890625 26.632812 16.035156 26.617188 C 16.257812 26.589844 16.476562 26.5625 16.699219 26.539062 C 20.398438 26.164062 24.121094 25.941406 27.792969 25.308594 C 28.363281 25.21875 28.929688 25.117188 29.496094 25.015625 L 29.402344 25.027344 C 29.527344 25.011719 29.652344 24.988281 29.777344 24.960938 C 29.878906 24.964844 29.980469 24.925781 30.082031 24.898438 C 30.230469 24.847656 30.382812 24.792969 30.511719 24.695312 C 30.835938 24.46875 30.992188 24.089844 31.152344 23.742188 C 31.449219 23.101562 31.753906 22.460938 32.082031 21.835938 C 32.292969 21.425781 32.503906 21.011719 32.710938 20.597656 C 32.761719 20.472656 32.847656 20.351562 32.886719 20.21875 C 32.933594 20.113281 32.980469 20.007812 33.023438 19.902344 C 33.0625 19.8125 33.097656 19.722656 33.136719 19.632812 C 33.136719 19.628906 33.136719 19.625 33.140625 19.621094 C 33.195312 19.5 33.273438 19.320312 33.402344 19.003906 C 33.425781 18.933594 33.453125 18.859375 33.46875 18.785156 L 33.46875 18.792969 C 33.511719 18.625 33.515625 18.429688 33.382812 18.296875 Z M 30.898438 20.234375 C 30.359375 21.195312 29.765625 22.128906 29.140625 23.039062 C 29.078125 23.125 29.019531 23.210938 28.957031 23.296875 C 28.421875 23.449219 27.878906 23.5625 27.332031 23.675781 C 26.929688 23.761719 26.523438 23.847656 26.117188 23.929688 C 26.121094 23.910156 26.125 23.890625 26.125 23.867188 C 26.125 23.890625 26.121094 23.910156 26.117188 23.929688 C 26.121094 23.929688 26.121094 23.925781 26.121094 23.921875 C 26.175781 23.617188 26.25 23.316406 26.308594 23.015625 C 26.367188 22.703125 26.390625 22.570312 26.410156 22.445312 C 27.042969 22.417969 27.675781 22.378906 28.308594 22.335938 C 28.347656 22.335938 28.390625 22.332031 28.433594 22.328125 C 28.441406 22.328125 28.445312 22.328125 28.453125 22.328125 C 28.457031 22.328125 28.460938 22.324219 28.464844 22.324219 C 28.523438 22.328125 28.578125 22.308594 28.621094 22.269531 C 28.742188 22.148438 28.652344 21.925781 28.480469 21.929688 C 27.816406 21.890625 27.152344 21.859375 26.488281 21.832031 C 26.582031 21.003906 26.691406 19.652344 26.707031 19.148438 C 26.714844 19.058594 26.699219 18.984375 26.660156 18.921875 C 26.714844 18.929688 26.773438 18.9375 26.828125 18.941406 C 28.269531 19.089844 29.976562 19.304688 31.308594 19.472656 C 31.175781 19.726562 31.039062 19.980469 30.898438 20.234375 Z M 30.898438 20.234375 " fill-opacity="1" fill-rule="nonzero"/><path fill="#5271ff" d="M 31.253906 29.027344 C 31.171875 28.730469 30.886719 28.507812 30.578125 28.492188 C 30.445312 28.472656 30.308594 28.457031 30.171875 28.449219 C 29.464844 28.394531 28.757812 28.351562 28.046875 28.304688 C 25.003906 28.125 21.960938 27.933594 18.917969 27.757812 C 17.410156 27.675781 15.898438 27.636719 14.390625 27.550781 C 13.789062 25.871094 12.890625 23.328125 12.140625 21.328125 C 11.03125 18.320312 9.878906 15.332031 8.765625 12.328125 C 8.710938 12.191406 8.660156 12.050781 8.609375 11.914062 C 8.53125 11.683594 8.4375 11.457031 8.320312 11.242188 C 8.292969 11.1875 8.304688 11.210938 8.320312 11.25 C 8.144531 10.859375 7.824219 10.515625 7.402344 10.40625 C 6.992188 10.328125 6.570312 10.332031 6.15625 10.316406 C 5.421875 10.296875 4.6875 10.285156 3.953125 10.285156 C 3.5 10.292969 3.046875 10.304688 2.589844 10.324219 C 2.503906 10.328125 2.414062 10.335938 2.328125 10.339844 C 2.304688 10.339844 2.277344 10.335938 2.253906 10.332031 C 2.214844 10.332031 2.175781 10.335938 2.140625 10.347656 C 2.113281 10.34375 2.085938 10.34375 2.0625 10.34375 C 1.929688 10.339844 1.792969 10.390625 1.675781 10.453125 C 1.65625 10.460938 1.636719 10.472656 1.617188 10.484375 C 1.496094 10.5625 1.40625 10.667969 1.324219 10.789062 C 1.273438 10.890625 1.222656 11 1.195312 11.109375 C 1.171875 11.214844 1.15625 11.320312 1.152344 11.425781 C 1.160156 11.515625 1.171875 11.605469 1.1875 11.695312 C 1.21875 11.804688 1.261719 11.910156 1.316406 12.003906 C 1.410156 12.148438 1.539062 12.265625 1.679688 12.363281 C 1.835938 12.457031 2.007812 12.523438 2.179688 12.574219 C 2.8125 12.722656 3.464844 12.71875 4.113281 12.734375 C 4.851562 12.757812 5.585938 12.773438 6.324219 12.796875 C 6.539062 13.363281 6.753906 13.925781 6.96875 14.488281 C 8.109375 17.484375 9.117188 20.523438 10.148438 23.558594 C 10.53125 24.695312 10.90625 25.835938 11.351562 26.949219 C 11.332031 26.898438 11.3125 26.847656 11.289062 26.796875 C 11.410156 27.082031 11.519531 27.371094 11.636719 27.660156 C 11.472656 27.785156 11.3125 27.917969 11.15625 28.054688 C 11.199219 28.023438 11.242188 27.988281 11.285156 27.957031 C 11.039062 28.144531 10.8125 28.371094 10.589844 28.589844 C 10.414062 28.777344 10.257812 28.976562 10.109375 29.1875 C 10.019531 29.316406 9.945312 29.464844 9.910156 29.621094 C 9.867188 29.816406 9.886719 30.007812 9.992188 30.183594 C 10.027344 30.226562 10.054688 30.277344 10.09375 30.316406 C 10.144531 30.359375 10.195312 30.402344 10.25 30.433594 C 10.304688 30.457031 10.359375 30.480469 10.414062 30.503906 C 10.480469 30.515625 10.550781 30.523438 10.617188 30.53125 C 10.988281 30.511719 11.316406 30.3125 11.605469 30.089844 C 12.066406 29.742188 12.503906 29.359375 12.921875 28.960938 C 12.941406 28.945312 12.964844 28.925781 12.984375 28.90625 C 13.070312 28.917969 13.160156 28.925781 13.25 28.933594 C 15.128906 29.117188 17.015625 29.128906 18.898438 29.238281 C 20.402344 29.320312 21.90625 29.425781 23.410156 29.515625 C 25.121094 29.621094 26.832031 29.71875 28.542969 29.828125 C 29.09375 29.863281 29.640625 29.898438 30.191406 29.9375 C 30.402344 29.949219 30.636719 29.992188 30.832031 29.890625 C 31.101562 29.796875 31.28125 29.503906 31.277344 29.222656 C 31.269531 29.160156 31.261719 29.09375 31.253906 29.027344 Z M 31.253906 29.027344 " fill-opacity="1" fill-rule="nonzero"/><path fill="#5271ff" d="M 15.710938 32.398438 C 15.710938 32.691406 15.648438 32.976562 15.523438 33.25 C 15.398438 33.519531 15.21875 33.761719 14.988281 33.96875 C 14.757812 34.175781 14.488281 34.335938 14.1875 34.449219 C 13.886719 34.5625 13.570312 34.617188 13.242188 34.617188 C 12.917969 34.617188 12.601562 34.5625 12.300781 34.449219 C 11.996094 34.335938 11.730469 34.175781 11.5 33.96875 C 11.269531 33.761719 11.089844 33.519531 10.964844 33.25 C 10.839844 32.976562 10.777344 32.691406 10.777344 32.398438 C 10.777344 32.105469 10.839844 31.820312 10.964844 31.550781 C 11.089844 31.277344 11.269531 31.039062 11.5 30.828125 C 11.730469 30.621094 11.996094 30.460938 12.300781 30.347656 C 12.601562 30.234375 12.917969 30.179688 13.242188 30.179688 C 13.570312 30.179688 13.886719 30.234375 14.1875 30.347656 C 14.488281 30.460938 14.757812 30.621094 14.988281 30.828125 C 15.21875 31.039062 15.398438 31.277344 15.523438 31.550781 C 15.648438 31.820312 15.710938 32.105469 15.710938 32.398438 Z M 15.710938 32.398438 " fill-opacity="1" fill-rule="nonzero"/><path fill="#5271ff" d="M 30.59375 32.398438 C 30.59375 32.691406 30.53125 32.976562 30.40625 33.25 C 30.28125 33.519531 30.101562 33.761719 29.871094 33.96875 C 29.640625 34.175781 29.371094 34.335938 29.070312 34.449219 C 28.769531 34.5625 28.453125 34.617188 28.125 34.617188 C 27.800781 34.617188 27.484375 34.5625 27.183594 34.449219 C 26.878906 34.335938 26.613281 34.175781 26.382812 33.96875 C 26.152344 33.761719 25.972656 33.519531 25.847656 33.25 C 25.722656 32.976562 25.660156 32.691406 25.660156 32.398438 C 25.660156 32.105469 25.722656 31.820312 25.847656 31.550781 C 25.972656 31.277344 26.152344 31.039062 26.382812 30.828125 C 26.613281 30.621094 26.878906 30.460938 27.183594 30.347656 C 27.484375 30.234375 27.800781 30.179688 28.125 30.179688 C 28.453125 30.179688 28.769531 30.234375 29.070312 30.347656 C 29.371094 30.460938 29.640625 30.621094 29.871094 30.828125 C 30.101562 31.039062 30.28125 31.277344 30.40625 31.550781 C 30.53125 31.820312 30.59375 32.105469 30.59375 32.398438 Z M 30.59375 32.398438 " fill-opacity="1" fill-rule="nonzero"/><g fill="#5271ff" fill-opacity="1"><g transform="translate(37.329235, 27.160044)"><g><path d="M 6.5625 -10.03125 L 6.5625 0 L 4.0625 0 L 4.0625 -10.03125 L 0.1875 -10.03125 L 0.1875 -11.96875 L 10.4375 -11.96875 L 10.4375 -10.03125 Z M 6.5625 -10.03125 "/></g></g></g><g fill="#5271ff" fill-opacity="1"><g transform="translate(47.337908, 27.160044)"><g/></g></g><g fill="#5271ff" fill-opacity="1"><g transform="translate(51.55851, 27.160044)"><g><path d="M 0.765625 -3.265625 C 0.765625 -4.035156 0.992188 -4.71875 1.453125 -5.3125 C 1.910156 -5.90625 2.640625 -6.4375 3.640625 -6.90625 C 3.210938 -7.75 3 -8.535156 3 -9.265625 C 3 -10.148438 3.273438 -10.832031 3.828125 -11.3125 C 4.390625 -11.789062 5.179688 -12.03125 6.203125 -12.03125 C 7.160156 -12.03125 7.914062 -11.800781 8.46875 -11.34375 C 9.019531 -10.894531 9.296875 -10.285156 9.296875 -9.515625 C 9.296875 -9.078125 9.179688 -8.679688 8.953125 -8.328125 C 8.734375 -7.972656 8.421875 -7.644531 8.015625 -7.34375 C 7.609375 -7.050781 6.925781 -6.675781 5.96875 -6.21875 C 6.519531 -5.226562 7.207031 -4.28125 8.03125 -3.375 C 8.625 -4.269531 9.070312 -5.296875 9.375 -6.453125 L 11.15625 -5.859375 C 10.769531 -4.535156 10.222656 -3.347656 9.515625 -2.296875 C 9.992188 -1.878906 10.492188 -1.671875 11.015625 -1.671875 C 11.390625 -1.671875 11.722656 -1.71875 12.015625 -1.8125 L 12.015625 -0.078125 C 11.703125 0.046875 11.332031 0.109375 10.90625 0.109375 C 10.414062 0.109375 9.925781 0.0195312 9.4375 -0.15625 C 8.945312 -0.332031 8.5 -0.585938 8.09375 -0.921875 C 7.132812 -0.191406 6.0625 0.171875 4.875 0.171875 C 3.570312 0.171875 2.5625 -0.128906 1.84375 -0.734375 C 1.125 -1.335938 0.765625 -2.179688 0.765625 -3.265625 Z M 7.390625 -9.5 C 7.390625 -9.820312 7.28125 -10.082031 7.0625 -10.28125 C 6.851562 -10.488281 6.5625 -10.59375 6.1875 -10.59375 C 5.75 -10.59375 5.414062 -10.46875 5.1875 -10.21875 C 4.957031 -9.976562 4.84375 -9.65625 4.84375 -9.25 C 4.84375 -8.757812 5 -8.210938 5.3125 -7.609375 C 5.90625 -7.867188 6.328125 -8.085938 6.578125 -8.265625 C 6.835938 -8.441406 7.035156 -8.628906 7.171875 -8.828125 C 7.316406 -9.023438 7.390625 -9.25 7.390625 -9.5 Z M 6.6875 -2.09375 C 5.75 -3.132812 4.976562 -4.203125 4.375 -5.296875 C 3.40625 -4.835938 2.921875 -4.171875 2.921875 -3.296875 C 2.921875 -2.742188 3.101562 -2.296875 3.46875 -1.953125 C 3.84375 -1.609375 4.34375 -1.4375 4.96875 -1.4375 C 5.34375 -1.4375 5.675781 -1.503906 5.96875 -1.640625 C 6.269531 -1.773438 6.507812 -1.925781 6.6875 -2.09375 Z M 6.6875 -2.09375 "/></g></g></g><g fill="#5271ff" fill-opacity="1"><g transform="translate(63.502198, 27.160044)"><g/></g></g><g fill="#5271ff" fill-opacity="1"><g transform="translate(67.722799, 27.160044)"><g><path d="M 11.765625 -3.40625 C 11.765625 -2.320312 11.359375 -1.484375 10.546875 -0.890625 C 9.734375 -0.296875 8.601562 0 7.15625 0 L 1.15625 0 L 1.15625 -11.96875 L 6.640625 -11.96875 C 8.097656 -11.96875 9.203125 -11.710938 9.953125 -11.203125 C 10.703125 -10.691406 11.078125 -9.941406 11.078125 -8.953125 C 11.078125 -8.273438 10.890625 -7.703125 10.515625 -7.234375 C 10.140625 -6.765625 9.566406 -6.453125 8.796875 -6.296875 C 9.765625 -6.179688 10.5 -5.875 11 -5.375 C 11.507812 -4.882812 11.765625 -4.226562 11.765625 -3.40625 Z M 8.5625 -8.625 C 8.5625 -9.15625 8.390625 -9.535156 8.046875 -9.765625 C 7.703125 -9.992188 7.191406 -10.109375 6.515625 -10.109375 L 3.671875 -10.109375 L 3.671875 -7.140625 L 6.53125 -7.140625 C 7.238281 -7.140625 7.753906 -7.257812 8.078125 -7.5 C 8.398438 -7.75 8.5625 -8.125 8.5625 -8.625 Z M 9.25 -3.609375 C 9.25 -4.734375 8.445312 -5.296875 6.84375 -5.296875 L 3.671875 -5.296875 L 3.671875 -1.859375 L 6.9375 -1.859375 C 7.738281 -1.859375 8.320312 -2.003906 8.6875 -2.296875 C 9.0625 -2.585938 9.25 -3.023438 9.25 -3.609375 Z M 9.25 -3.609375 "/></g></g></g></svg>